<?xml version="1.0" encoding="utf-8"?>
<!-- Generator: Adobe Illustrator 25.2.3, SVG Export Plug-In . SVG Version: 6.00 Build 0)  -->
<svg version="1.1" id="Layer_1" xmlns="http://www.w3.org/2000/svg" xmlns:xlink="http://www.w3.org/1999/xlink" x="0px" y="0px"
	 width="40px" height="40px" viewBox="0 0 40 40" style="enable-background:new 0 0 40 40;" xml:space="preserve">
<style type="text/css">
	.st0{fill-rule:evenodd;clip-rule:evenodd;fill:#0065FF;}
</style>
<g>
	<path class="st0" d="M20.5,14c-0.276123,0-0.5,0.223877-0.5,0.5v12c0,0.276123,0.223877,0.5,0.5,0.5s0.5-0.223877,0.5-0.5v-12
		C21,14.223877,20.776123,14,20.5,14z"/>
	<path class="st0" d="M24.5,18c-0.276123,0-0.5,0.223877-0.5,0.5v4c0,0.276123,0.223877,0.5,0.5,0.5s0.5-0.223877,0.5-0.5v-4
		C25,18.223877,24.776123,18,24.5,18z"/>
	<path class="st0" d="M16.5,18c-0.276123,0-0.5,0.223877-0.5,0.5v4c0,0.276123,0.223877,0.5,0.5,0.5s0.5-0.223877,0.5-0.5v-4
		C17,18.223877,16.776123,18,16.5,18z"/>
</g>
</svg>
